HIERARCHY
ROOT hip
{
  OFFSET 0 0 0
  CHANNELS 6 Xposition Yposition Zposition Zrotation Yrotation Xrotation
  JOINT abdomen
  {
    OFFSET 0 20.6881 -0.73152
    CHANNELS 3 Zrotation Xrotation Yrotation
    JOINT chest
    {
      OFFSET 0 11.7043 -0.48768
      CHANNELS 3 Zrotation Xrotation Yrotation
      JOINT neck
      {
        OFFSET 0 22.1894 -2.19456
        CHANNELS 3 Zrotation Xrotation Yrotation
        JOINT head
        {
          OFFSET -0.24384 7.07133 1.2192
          CHANNELS 3 Zrotation Xrotation Yrotation
          JOINT leftEye
          {
            OFFSET 4.14528 8.04674 8.04672
            CHANNELS 3 Zrotation Xrotation Yrotation
            End Site
            {
              OFFSET 1 0 0
            }
          }
          JOINT rightEye
          {
            OFFSET -3.6576 8.04674 8.04672
            CHANNELS 3 Zrotation Xrotation Yrotation
            End Site
            {
              OFFSET 1 0 0
            }
          }
        }
      }
      JOINT rCollar
      {
        OFFSET -2.68224 19.2634 -4.8768
        CHANNELS 3 Zrotation Xrotation Yrotation
        JOINT rShldr
        {
          OFFSET -8.77824 -1.95073 1.46304
          CHANNELS 3 Zrotation Xrotation Yrotation
          JOINT rForeArm
          {
            OFFSET -28.1742 -1.7115 0.48768
            CHANNELS 3 Zrotation Xrotation Yrotation
            JOINT rHand
            {
              OFFSET -22.5879 0.773209 7.07136
              CHANNELS 3 Zrotation Xrotation Yrotation
              JOINT rThumb1
              {
                OFFSET -1.2192 -0.487915 3.41376
                CHANNELS 3 Zrotation Xrotation Yrotation
                JOINT rThumb2
                {
                  OFFSET -3.37035 -0.52449 3.41376
                  CHANNELS 3 Zrotation Xrotation Yrotation
                  End Site
                  {
                    OFFSET -1.78271 -1.18214 1.43049
                  }
                }
              }
              JOINT rIndex1
              {
                OFFSET -7.75947 0.938293 5.60832
                CHANNELS 3 Zrotation Xrotation Yrotation
                JOINT rIndex2
                {
                  OFFSET -2.54057 -0.884171 1.56538
                  CHANNELS 3 Zrotation Xrotation Yrotation
                  End Site
                  {
                    OFFSET -1.62519 -0.234802 1.16502
                  }
                }
              }
              JOINT rMid1
              {
                OFFSET -8.24714 1.18213 3.41376
                CHANNELS 3 Zrotation Xrotation Yrotation
                JOINT rMid2
                {
                  OFFSET -3.10165 -0.590103 1.0647
                  CHANNELS 3 Zrotation Xrotation Yrotation
                  End Site
                  {
                    OFFSET -2.48547 -0.328903 0.83742
                  }
                }
              }
              JOINT rRing1
              {
                OFFSET -8.82822 0.546677 1.51678
                CHANNELS 3 Zrotation Xrotation Yrotation
                JOINT rRing2
                {
                  OFFSET -2.60934 -0.819778 -0.0198488
                  CHANNELS 3 Zrotation Xrotation Yrotation
                  End Site
                  {
                    OFFSET -2.33842 -0.294052 0.168128
                  }
                }
              }
              JOINT rPinky1
              {
                OFFSET -8.27202 -0.0477905 -0.4584
                CHANNELS 3 Zrotation Xrotation Yrotation
                JOINT rPinky2
                {
                  OFFSET -1.82734 -0.647385 -0.700984
                  CHANNELS 3 Zrotation Xrotation Yrotation
                  End Site
                  {
                    OFFSET -1.69225 -0.51767 -0.607171
                  }
                }
              }
            }
          }
        }
      }
      JOINT lCollar
      {
        OFFSET 2.68224 19.2634 -4.8768
        CHANNELS 3 Zrotation Xrotation Yrotation
        JOINT lShldr
        {
          OFFSET 8.77824 -1.95073 1.46304
          CHANNELS 3 Zrotation Xrotation Yrotation
          JOINT lForeArm
          {
            OFFSET 28.1742 -1.7115 0.48768
            CHANNELS 3 Zrotation Xrotation Yrotation
            JOINT lHand
            {
              OFFSET 22.5879 0.773209 7.07136
              CHANNELS 3 Zrotation Xrotation Yrotation
              JOINT lThumb1
              {
                OFFSET 1.2192 -0.487915 3.41376
                CHANNELS 3 Zrotation Xrotation Yrotation
                JOINT lThumb2
                {
                  OFFSET 3.37035 -0.52449 3.41376
                  CHANNELS 3 Zrotation Xrotation Yrotation
                  End Site
                  {
                    OFFSET 1.78271 -1.18214 1.43049
                  }
                }
              }
              JOINT lIndex1
              {
                OFFSET 7.75947 0.938293 5.60832
                CHANNELS 3 Zrotation Xrotation Yrotation
                JOINT lIndex2
                {
                  OFFSET 2.54057 -0.884171 1.56538
                  CHANNELS 3 Zrotation Xrotation Yrotation
                  End Site
                  {
                    OFFSET 1.62519 -0.234802 1.16502
                  }
                }
              }
              JOINT lMid1
              {
                OFFSET 8.24714 1.18213 3.41376
                CHANNELS 3 Zrotation Xrotation Yrotation
                JOINT lMid2
                {
                  OFFSET 3.10165 -0.590103 1.0647
                  CHANNELS 3 Zrotation Xrotation Yrotation
                  End Site
                  {
                    OFFSET 2.48547 -0.328903 0.83742
                  }
                }
              }
              JOINT lRing1
              {
                OFFSET 8.82822 0.546677 1.51678
                CHANNELS 3 Zrotation Xrotation Yrotation
                JOINT lRing2
                {
                  OFFSET 2.60934 -0.819778 -0.0198488
                  CHANNELS 3 Zrotation Xrotation Yrotation
                  End Site
                  {
                    OFFSET 2.33842 -0.294052 0.168128
                  }
                }
              }
              JOINT lPinky1
              {
                OFFSET 8.27202 -0.0477905 -0.4584
                CHANNELS 3 Zrotation Xrotation Yrotation
                JOINT lPinky2
                {
                  OFFSET 1.82734 -0.647385 -0.700984
                  CHANNELS 3 Zrotation Xrotation Yrotation
                  End Site
                  {
                    OFFSET 1.69225 -0.51767 -0.607171
                  }
                }
              }
            }
          }
        }
      }
    }
  }
  JOINT rButtock
  {
    OFFSET -8.77824 4.35084 1.2192
    CHANNELS 3 Zrotation Xrotation Yrotation
    JOINT rThigh
    {
      OFFSET 0 -1.70687 -2.19456
      CHANNELS 3 Zrotation Xrotation Yrotation
      JOINT rShin
      {
        OFFSET 0 -36.8199 0.73152
        CHANNELS 3 Zrotation Xrotation Yrotation
        JOINT rFoot
        {
          OFFSET 0.73152 -45.1104 -5.12064
          CHANNELS 3 Zrotation Xrotation Yrotation
          End Site
          {
            OFFSET -1.1221 -3.69964 12.103
          }
        }
      }
    }
  }
  JOINT lButtock
  {
    OFFSET 8.77824 4.35084 1.2192
    CHANNELS 3 Zrotation Xrotation Yrotation
    JOINT lThigh
    {
      OFFSET 0 -1.70687 -2.19456
      CHANNELS 3 Zrotation Xrotation Yrotation
      JOINT lShin
      {
        OFFSET 0 -36.8199 0.73152
        CHANNELS 3 Zrotation Xrotation Yrotation
        JOINT lFoot
        {
          OFFSET -0.73152 -45.1104 -5.12064
          CHANNELS 3 Zrotation Xrotation Yrotation
          End Site
          {
            OFFSET 1.1221 -3.69964 12.103
          }
        }
      }
    }
  }
}
MOTION
Frames:	4
Frame Time:	0.00833333
-4.9973 80.35369999999999 -30.1487 -10.475457 -40.875305 13.305732 9.019161 -1.32224 83.989942 -8.762801 -0.28673 -83.945445 9.308401 25.345207 115.310286 -30.12595 12.261078 -105.191727 0.002116 0.0 0.002005 -0.00334 0.0 -0.000204 -158.997385 -39.033164 168.592771 133.171711 -0.427835 -165.879526 156.40265 28.114995 74.487892 -175.428138 10.785968 142.312545 -168.179539 -5.856996 89.874006 -145.692049 5.392463 73.81376 -157.012312 -27.642926 122.450025 171.353357 -55.862993 107.369745 -86.33563 60.959037 77.896122 -40.998161 58.012569 35.341712 -145.120591 0.712988 -179.350752 -157.113596 54.836849 174.157199 -15.603877 -28.40261 -14.890042 -131.124882 -24.767082 -129.773843 0.613335 3.526216 -0.803469 86.54798 -11.441535 -179.459726 -174.683499 14.22849 65.011853 21.260326 68.552222 -14.2188 158.090719 4.108534 -88.471558 -147.780251 -40.438189 -89.58151 131.973902 13.879062 -110.513323 -176.885211 -45.022159 -112.708798 177.937704 -54.555402 -143.173063 169.948633 -24.420731 -143.983748 0.065293 -3.675504 1.155771 -7.828461 26.074313 -3.910596 152.671572 39.19224 147.919434 165.133804 61.023253 146.370707 -0.007066 8.7e-05 -0.006702 12.233264 -13.22732 170.972531 10.736232 -37.514815 146.185976 -116.304894 -52.433612 -22.615011 179.957443 75.749552 0.034306 -153.67289 17.766608 64.59382 73.916184 26.853809 103.340246 153.357844 21.828396 160.995443
-5.4296 81.0886 -31.7289 -13.532078 -42.316169 16.206355 11.091455 -0.724292 89.32462 -8.459796 0.034592 -88.554509 -8.992466 28.645621 -117.724008 23.941694 32.996162 125.524376 5.6e-05 0.0 0.000733 5.6e-05 0.0 0.000733 -108.421892 64.868851 111.849017 -109.333388 8.061611 97.466625 -61.533376 -8.96326 -142.104152 124.402339 -71.577006 105.284 -1.19268 1.173905 0.19525 21.559308 -33.499351 -14.035371 -140.858582 1.22992 116.284265 -61.062866 56.591518 43.396621 -23.652147 42.688626 18.47488 -4.23067 19.987389 4.085999 -0.006252 -0.524298 -0.165816 6.026617 34.512471 5.782448 -4.317229 -10.140471 -4.03817 -39.657511 -49.849904 -40.151414 148.671667 26.277613 -153.58528 77.317043 2.353284 -42.840683 -3.33817 -38.437778 147.185379 -141.493451 -47.393856 -131.391575 -120.905318 -49.274039 -60.122998 64.225277 26.242367 -17.711958 160.829824 -34.419779 -122.708581 133.350344 31.085006 -108.86667 178.971236 -56.34177 -142.660615 -125.881909 -77.241849 -95.420814 144.934978 -6.882078 176.952251 -12.658295 39.149642 4.514014 8.078491 -17.380101 7.620674 154.692788 39.608392 148.66754 -0.000205 -0.001219 -3.6e-05 12.936084 -9.609013 58.734389 27.345223 14.951895 -88.33285 -147.360689 -23.8324 -19.580455 -0.000699 0.000523 3.1e-05 45.786777 -44.771661 -60.505973 -65.202916 -19.362646 -33.513991 107.987104 -13.881706 -174.01771
-5.3816999999999995 81.57130000000001 -33.0253 -17.381001 -48.489501 17.974412 16.081408 0.091304 -90.433162 8.581995 -3.868799 93.107533 2.819934 12.324568 27.464415 -2.257949 -20.085449 -13.150203 0.003891 -0.0 -0.000366 0.003891 -0.0 -0.000366 -2.93567 14.622902 3.664081 45.777234 68.720219 34.574513 -89.634345 -13.672324 6.404174 26.352261 -59.914173 13.75183 102.858646 -51.152739 47.485416 -167.004202 -36.075686 128.549248 36.961175 -57.690198 -0.780399 -164.571691 -26.910259 112.499038 -154.717063 10.202137 139.815697 1.488367 5.107099 1.107382 -145.117944 0.131876 -179.169901 -157.278059 35.940066 176.70189 -9.978227 -20.5557 -9.444244 -148.593709 17.277252 -144.880132 37.698699 62.019614 -40.264877 140.19591 -34.00825 -107.183924 55.22653 -57.331749 -152.44455 -77.841504 -62.608657 -70.726382 -177.380869 -19.899688 -88.806783 155.196097 5.723309 -85.442921 156.652672 -26.98471 -122.39565 170.07368 -34.270409 -117.865552 0.599706 1.732353 -0.339998 161.861517 -0.510401 -142.85509 144.979896 -5.795212 177.29904 150.926623 -30.354359 174.225083 -18.4754 64.426703 -13.026956 45.264935 -50.687608 44.620193 -0.000316 -0.00146 6.6e-05 14.241755 -10.356915 165.773344 -0.612567 -30.888942 -125.629474 -42.054721 3.849539 -31.964605 -0.005697 0.000232 -0.003602 46.859134 -43.893056 -120.219169 -33.767146 -50.996653 -154.024423 25.047741 -33.889111 -53.498569
-5.0326 81.8776 -33.861200000000004 -17.747111 -51.442043 18.490531 9.641407 1.124343 87.312058 -8.821828 -2.570287 -83.63793 5.208155 13.091803 38.769968 -8.068687 -18.138439 -23.58606 -0.001188 0.0 -0.001607 -0.001188 0.0 -0.001607 -6.588716 27.197046 7.843066 -92.254065 2.158123 155.844377 171.563649 -10.226532 -100.579192 -12.822035 27.138376 1.467723 154.915143 -36.860445 80.786033 -44.588427 -7.62466 -3.699233 -179.319532 -58.336585 117.099229 158.154716 -63.013613 94.233495 -151.23689 18.360794 137.361776 -3.243533 17.312445 3.675141 -145.122404 2.193721 -179.818229 -157.4938 45.807424 175.486416 8.160121 25.66745 7.193773 -169.304984 74.220578 -147.00577 154.211086 4.167 -160.120568 82.352746 13.674934 -29.295898 -10.155044 -64.825818 141.787427 -143.138099 -45.587523 -133.371024 -32.89498 -30.335747 -4.145177 -3.474724 -75.59681 46.884479 -24.447269 -42.865623 5.489848 166.468146 -27.544765 -110.892003 162.603792 -12.742513 -144.064993 -108.982868 -78.205435 -79.228778 145.117193 -0.088401 179.099581 154.09311 -12.989081 177.432533 66.623398 -51.737618 65.1828 125.752699 -30.779398 124.819496 -179.999602 75.74792 -0.000201 -148.562211 63.757411 3.258263 16.510365 24.929517 -91.520999 -175.563365 -20.986407 -54.973908 -179.881072 75.749585 -0.091894 -147.483273 19.826953 97.75167 64.284325 -16.943404 51.546639 -151.777708 -2.389583 124.236696
